inDegrees=yes
name=ik_lifting_orientations
DataType=double
version=3
OpenSimVersion=4.5-2024-01-10-34fd6af
endheader
time	pelvis_tilt	pelvis_list	pelvis_rotation	pelvis_tx	pelvis_ty	pelvis_tz	hip_flexion_r	hip_adduction_r	hip_rotation_r	knee_angle_r	knee_angle_r_beta	ankle_angle_r	subtalar_angle_r	mtp_angle_r	hip_flexion_l	hip_adduction_l	hip_rotation_l	knee_angle_l	knee_angle_l_beta	ankle_angle_l	subtalar_angle_l	mtp_angle_l	lumbar_extension	lumbar_bending	lumbar_rotation	arm_flex_r	arm_add_r	arm_rot_r	elbow_flex_r	pro_sup_r	wrist_flex_r	wrist_dev_r	arm_flex_l	arm_add_l	arm_rot_l	elbow_flex_l	pro_sup_l	wrist_flex_l	wrist_dev_l
1.02	1.256903992704159	4.434100394402223	-108.4549263744402	0	0.9399999998679526	0	45.45146453103915	-12.25406185300805	0	61.0198331810903	1.064996998027711	-6.075570711368095	0	0	45.45146453103915	-12.25406185300805	0	61.0198331810903	1.064996998027711	-6.075570711368095	0	0	2.3401896017464	-0.7551673331237677	9.112108291961743	18.44590177773761	-19.32702488138861	19.52842652491065	26.69990392197858	1.25789141513495	0	0	0	-9.788596777931641	0	88.7852512095842	1.25789141513495	0	0
1.03	1.113441478324574	3.509508683289985	-108.7034771364531	0	0.9399999998679526	0	45.44955581014212	-12.23064753213231	0	61.01559166433673	1.064922969595083	-6.062123703897826	0	0	45.44955581014212	-12.23064753213231	0	61.01559166433673	1.064922969595083	-6.062123703897826	0	0	2.555067392183122	-0.4887277178097988	9.324119422474594	19.16909780055132	-20.57327351300362	19.99896475001419	28.71655130923476	1.253834488696953	0	0	0	-9.80191604265891	0	88.78916840854204	1.253834488696953	0	0
1.04	0.9763435343234544	2.453655736778348	-109.3066357994118	0	0.9399999998679526	0	45.44776980598078	-12.20874522575618	0	61.01163279298401	1.064853874255315	-6.049550772889853	0	0	45.44776980598078	-12.20874522575618	0	61.01163279298401	1.064853874255315	-6.049550772889853	0	0	3.211508707186025	-0.04454909107667063	10.20646445021488	19.40544498234019	-21.94129229175654	20.33006147046983	31.11143225671352	1.250039060607628	0	0	0	-9.814374542836834	0	88.79283311555919	1.250039060607628	0	0
1.05	0.8453344348711416	1.372123721982576	-111.485473269006	0	0.9399999998679526	0	45.44549533809322	-12.18163975213741	0	61.00653548665634	1.064764909476914	-6.034117805220546	0	0	45.44549533809322	-12.18163975213741	0	61.00653548665634	1.064764909476914	-6.034117805220546	0	0	2.765238799772684	0.03701582550068781	12.75172333416451	20.92284920552981	-23.16436141719579	20.57823263855887	33.90372149388448	1.245178269012243	0	0	0	-9.830394253531349	0	88.79752649460256	1.245178269012243	0	0
1.06	0.7226903728513147	0.4014191877315516	-111.3015145091131	0	0.9399999998679526	0	45.44350440020072	-12.15810905472078	0	61.00207242780352	1.064687014405222	-6.020757578516627	0	0	45.44350440020072	-12.15810905472078	0	61.00207242780352	1.064687014405222	-6.020757578516627	0	0	2.390703002444551	-0.03621667357026116	12.60845493918426	22.66066262286575	-24.13546718966855	21.07798111590215	36.80040545517167	1.24091764062373	0	0	0	-9.84444864890523	0	88.80164038119715	1.24091764062373	0	0
1.07	0.5915410540446191	-0.4576930297305075	-110.9411421083597	0	0.9399999998679526	0	45.44156336646584	-12.13528672884767	0	60.99772309280155	1.064611104189166	-6.007822616845179	0	0	45.44156336646584	-12.13528672884767	0	60.99772309280155	1.064611104189166	-6.007822616845179	0	0	2.139373157644087	-0.01964271494013319	12.21374789853487	24.62773539155605	-24.897691500213	21.9819281260459	39.68031727126558	1.236760376470242	0	0	0	-9.858169495812932	0	88.80565446372866	1.236760376470242	0	0
1.08	0.4638587003985019	-1.135267092103371	-110.6917656192664	0	0.9399999998679526	0	45.43975061217611	-12.11366089050843	0	60.99369902913762	1.06454087102892	-5.995520299169234	0	0	45.43975061217611	-12.11366089050843	0	60.99369902913762	1.06454087102892	-5.995520299169234	0	0	2.081413842177529	0.1283850058024629	11.96056316646037	27.03938825543869	-26.34544206694072	23.93117066528006	40.53215322341757	1.232890073761953	0	0	0	-9.870913741162191	0	88.80939146749503	1.232890073761953	0	0
1.09	0.4067902574267933	-1.637572878238559	-110.8051108874773	0	0.9399999998679526	0	45.437775161056	-12.09037325832885	0	60.9893008451454	1.064464108237148	-5.982320937554765	0	0	45.437775161056	-12.09037325832885	0	60.9893008451454	1.064464108237148	-5.982320937554765	0	0	2.125906665070314	0.1859500758929593	12.00266654452674	29.3283211196839	-26.93105685227009	25.16590942928812	45.2521360522721	1.228663132002255	0	0	0	-9.884853636266946	0	88.81347282761659	1.228663132002255	0	0
1.1	0.3583744397975203	-2.060164905616308	-110.9454020233639	0	0.9399999998679526	0	45.42969286534728	-11.99570249848204	0	60.97122820773149	1.064148681209756	-5.928759378518849	0	0	45.42969286534728	-11.99570249848204	0	60.97122820773149	1.064148681209756	-5.928759378518849	0	0	2.180763300470401	0.2662674340492036	11.88128454999189	32.51239473653209	-28.35831661551531	26.57255088119597	58.35520087288346	1.211341989714809	0	0	0	-9.942046682981101	0	88.83019740792443	1.211341989714809	0	0
1.11	0.282474611987621	-2.557297375833425	-110.810613871317	0	0.9399999998679526	0	45.42620519288919	-11.95651683323203	0	60.96339635292365	1.064011989556821	-5.906884171573207	0	0	45.42620519288919	-11.95651683323203	0	60.96339635292365	1.064011989556821	-5.906884171573207	0	0	2.039867319985369	0.2718624307267787	11.49416976160274	34.71516076576242	-28.598918303974	27.21154702900659	65.47302987620832	1.203814581364758	0	0	0	-9.967019503463542	0	88.8374655653105	1.203814581364758	0	0
1.12	0.2241559571677	-2.99891062338112	-110.6230235099594	0	0.9399999998679526	0	45.42284677335416	-11.91931165808929	0	60.95584493503272	1.06388019245143	-5.886209830347611	0	0	45.42284677335416	-11.91931165808929	0	60.95584493503272	1.06388019245143	-5.886209830347611	0	0	1.913528214757729	0.240770849342979	10.93117318484851	36.98602063054528	-28.10360638693446	27.97991379974385	72.56153404872535	1.19654852054749	0	0	0	-9.991164979203253	0	88.84448137704182	1.19654852054749	0	0
1.13	0.1937286204462053	-3.283948489414532	-110.5645125454365	0	0.9399999998679526	0	45.41945990126375	-11.88180747383592	0	60.94826807468376	1.063747951291377	-5.865387053674994	0	0	45.41945990126375	-11.88180747383592	0	60.94826807468376	1.063747951291377	-5.865387053674994	0	0	1.9930757228525	0.2721110673289271	10.59364839308742	38.75984624879215	-27.60261838662891	28.30627146946005	80.39966316617586	1.189223604096252	0	0	0	-10.01549711836208	0	88.85155401720479	1.189223604096252	0	0
1.14	0.1713479158342256	-3.478751159715155	-110.7603241470053	0	0.9399999998679526	0	45.41621927604161	-11.84634042616955	0	60.94101622569142	1.063621382649603	-5.845772856496743	0	0	45.41621927604161	-11.84634042616955	0	60.94101622569142	1.063621382649603	-5.845772856496743	0	0	1.987422467462013	0.2859424931436244	10.840291441044	40.26448460849129	-27.02464245425031	28.03772838073627	88.20100884212924	1.182201350584998	0	0	0	-10.03885417963305	0	88.85833441901684	1.182201350584998	0	0
1.15	0.1516649044778808	-3.617235216911082	-110.8816654328841	0	0.9399999998679526	0	45.4142790608385	-11.82509328072987	0	60.93670778087533	1.063546186101922	-5.834036168895604	0	0	45.4142790608385	-11.82509328072987	0	60.93670778087533	1.063546186101922	-5.834036168895604	0	0	2.218119497912651	0.3479506521214522	10.9574633704142	41.26987295600104	-26.19458557718797	27.52951250619423	95.17682043627893	1.178001240665169	0	0	0	-10.05281154874506	0	88.86238987373841	1.178001240665169	0	0
